<svg width="20" height="20" viewBox="0 0 20 20" fill="none" xmlns="http://www.w3.org/2000/svg">
<rect width="20" height="20" fill="white"/>
<path d="M9.9 6C10.9 6 11.9 6.4 12.6 7.2L14 5.8C12.9 4.6 11.4 4 9.9 4C8.3 4 6.9 4.6 5.7 5.8C3.4 8.1 3.4 11.9 5.7 14.3C6.8 15.4 8.3 16 9.9 16C11.5 16 12.9 15.4 14.1 14.2L12.7 12.8C11.2 14.3 8.7 14.3 7.3 12.8C5.8 11.2 5.8 8.7 7.3 7.1C7.9 6.4 8.8 6 9.9 6Z" fill="black"/>
<path d="M10 0C4.5 0 0 4.5 0 10C0 15.5 4.5 20 10 20C15.5 20 20 15.5 20 10C20 4.5 15.5 0 10 0ZM10 18C5.6 18 2 14.4 2 10C2 5.6 5.6 2 10 2C14.4 2 18 5.6 18 10C18 14.4 14.4 18 10 18Z" fill="black"/>
</svg>
